<?xml version="1.0" encoding="UTF-8"?>
<svg viewBox="0 0 160 150" xmlns="http://www.w3.org/2000/svg" xmlns:xlink="http://www.w3.org/1999/xlink">
 <defs>
  <linearGradient id="a">
   <stop offset="0"/>
   <stop stop-opacity="0" offset="1"/>
  </linearGradient>
  <linearGradient id="b">
   <stop offset="0"/>
   <stop stop-color="#333" offset=".5"/>
   <stop offset="1"/>
  </linearGradient>
  <linearGradient id="k" x1="86.193" x2="183.22" gradientUnits="userSpaceOnUse">
   <stop stop-color="#1f1f1f" offset="0"/>
   <stop offset=".5"/>
   <stop stop-color="#444" offset="1"/>
  </linearGradient>
  <linearGradient id="j" x1="81.906" x2="178.16" gradientUnits="userSpaceOnUse">
   <stop stop-color="#fff" offset="0"/>
   <stop stop-color="#7f7f7f" offset=".37675"/>
   <stop stop-color="#fff" offset=".80195"/>
   <stop stop-color="#ccc" offset="1"/>
  </linearGradient>
  <linearGradient id="h" x1="-311.31" x2="-281.16" gradientTransform="matrix(.43846 .00079082 -.00065324 .53081 179.45 93.091)" gradientUnits="userSpaceOnUse">
   <stop stop-color="#808080" offset="0"/>
   <stop stop-color="#fff" offset=".5"/>
   <stop stop-color="#808080" offset="1"/>
  </linearGradient>
  <linearGradient id="e" x1="65.224" x2="156.75" gradientUnits="userSpaceOnUse" xlink:href="#b"/>
  <linearGradient id="i" x1="-158.78" x2="-128.62" gradientTransform="matrix(.43846 .00079082 -.00065324 .53081 112.57 94.231)" gradientUnits="userSpaceOnUse" xlink:href="#b"/>
  <linearGradient id="g" x1="113.01" x2="116.81" y1="395.66" y2="405.2" gradientUnits="userSpaceOnUse" xlink:href="#a"/>
  <linearGradient id="f" x1="145.6" x2="183.78" y1="375.93" y2="390.78" gradientUnits="userSpaceOnUse" xlink:href="#a"/>
  <radialGradient id="d" cx="114.59" cy="428.49" r="43.142" gradientTransform="matrix(.79139 4.4167e-8 0 .48101 26.015 198.55)" gradientUnits="userSpaceOnUse">
   <stop offset="0"/>
   <stop stop-color="#242424" offset="1"/>
  </radialGradient>
  <radialGradient id="c" cx="44.15" cy="208.93" r="74.727" gradientTransform="matrix(.97242 -.00351 .00205 .4093 .79499 131.71)" gradientUnits="userSpaceOnUse" xlink:href="#a"/>
 </defs>
 <path transform="matrix(.9701 .02141 -.02276 1.095 41.702 -128.24)" d="m121.07 222.51a74.727 23.283 0 1 1 -149.45 0 74.727 23.283 0 1 1 149.45 0z" fill="url(#c)" opacity=".61204"/>
 <g transform="translate(-52.294 -358.7)">
  <path d="m86.733 471.23c-0.46056-2.16 3.1458-21.526 3.5479-32.374 0.31222-8.4256-0.88697-25.278-0.88697-25.278l88.253-16.409s-1.9174 23.363-1.3304 35.035c0.63187 12.565 9.5651 28.049 5.2087 37.383-7.2196 15.468-28.983 21.26-46.009 22.487-15.46 1.1145-45.095-3.5493-48.783-20.844z" fill="url(#k)" stroke="#000"/>
  <path d="m177.66 397.16-88.25 16.438s0.32183 4.8797 0.59375 10.688c3.9165 2.604 8.2058 5.139 11.594 6.25 10.955 3.5924 23.012 3.4624 34.5 2.5 9.6509-0.80842 19.609-2.4407 28.219-6.875 3.6804-1.8955 8.4073-6.0175 12.125-9.5625 0.41274-9.9125 1.2188-19.438 1.2188-19.438z" fill="url(#j)"/>
  <path d="m68.04 410.07c4.5536 7.0311 14.377 9.3275 22.578 11.035 13.931 2.9002 28.613 0.46744 42.648-1.8815 15.267-2.5552 29.906-8.0958 44.53-13.171 9.5723-3.322 18.059-7.8023 28.223-11.289 1.9685-0.67531-0.44425-6.4687-2.5087-7.6829-6.0823-3.5773-23.745-6.689-35.749-9.5052-10.801-2.5339-21.661-4.8748-32.613-6.6446-10.393-1.6795-20.881-4.7916-31.359-3.7631-8.0556 0.79075-16.656 2.611-23.087 7.5261-6.3576 4.859-11.007 12.366-13.171 20.07-1.3802 4.9149-2.2663 11.022 0.50871 15.307z" fill="#323232" stroke="url(#e)" stroke-width="2"/>
  <path transform="translate(7)" d="m110.62 382.5c-2.0201-0.13372-3.8101-0.11929-5.3438 0.0312-6.8196 0.66943-12.607 2.441-15.219 4.4375-3.1416 2.4011-6.3405 7.2833-7.6562 11.969-0.42043 1.4972-0.33619 2.5198-0.34375 3.1875 1.2034 0.55138 5.0541 2.4563 11.719 3.8438 10.125 2.1079 22.926 0.34514 36.938-2 11.622-1.9451 23.81-6.2098 36.625-10.688-1.0352-0.23266-2.1289-0.45383-3.125-0.6875-10.606-2.4881-21.094-4.7197-31.531-6.4062-8.8068-1.4231-16.217-3.3006-22.062-3.6875z" fill="url(#d)" stroke="#1a1a1a"/>
  <path d="m176.09 379.44-26.75 8.4688c3.8885 0.74045 7.7759 1.5548 11.688 2.4062l25.188-8.6562c-3.3407-0.76957-6.7661-1.492-10.125-2.2188z" fill="url(#f)"/>
  <path d="m95.062 404.47-24.188 8.875c2.33 2.0757 5.2266 3.5924 8.3438 4.75l30.844-11.188c-3.2906-0.0476-6.3922-0.33604-9.2812-0.9375-2.2314-0.46455-4.112-0.98966-5.7188-1.5z" fill="url(#g)"/>
  <g transform="matrix(.29385 .95585 -.95585 .29385 432.84 245.64)">
   <path d="m43.445 286.93-0.85501 100.79 13.222 0.0238-0.60774-100.79z" fill="url(#i)"/>
   <path d="m47.827 271.01c-2.4161-4e-3 -4.1845 2.3545-4.3692 5.2736l-0.01327 10.784 11.76 0.0212 0.01327-10.784c0.0036-2.9249-1.9401-5.285-4.3562-5.2893l-3.0344-4e-3zm-5.2375 116.86-0.01717 13.95c-4e-3 3.2887 2.1814 5.9423 4.898 5.9472l3.4118 5e-3c2.7166 4e-3 4.9086-2.6408 4.9126-5.9295l0.01717-13.95-13.222-0.0238z" fill="url(#h)"/>
  </g>
 </g>
</svg>
